<?xml version="1.0" standalone="no"?><!-- Generator: Gravit.io --><svg xmlns="http://www.w3.org/2000/svg" xmlns:xlink="http://www.w3.org/1999/xlink" style="isolation:isolate" viewBox="1070 -109 374 200" width="374px" height="200px"><g><rect x="1070" y="-109" width="374" height="200" transform="matrix(1,0,0,1,0,0)" fill="rgb(255,255,255)"/><path d=" M 1394.909 29.92 L 1394.909 29.92 L 1394.909 29.92 Q 1394.909 30.966 1394.18 31.533 L 1394.18 31.533 L 1394.18 31.533 Q 1393.451 32.101 1392.134 32.101 L 1392.134 32.101 L 1392.134 32.101 Q 1390.74 32.101 1389.959 31.629 L 1389.959 31.629 L 1389.959 30.576 L 1389.959 30.576 Q 1390.465 30.85 1391.043 31.007 L 1391.043 31.007 L 1391.043 31.007 Q 1391.622 31.164 1392.159 31.164 L 1392.159 31.164 L 1392.159 31.164 Q 1392.99 31.164 1393.438 30.88 L 1393.438 30.88 L 1393.438 30.88 Q 1393.886 30.597 1393.886 30.016 L 1393.886 30.016 L 1393.886 30.016 Q 1393.886 29.578 1393.531 29.267 L 1393.531 29.267 L 1393.531 29.267 Q 1393.176 28.956 1392.146 28.532 L 1392.146 28.532 L 1392.146 28.532 Q 1391.168 28.143 1390.756 27.852 L 1390.756 27.852 L 1390.756 27.852 Q 1390.343 27.562 1390.142 27.192 L 1390.142 27.192 L 1390.142 27.192 Q 1389.94 26.823 1389.94 26.311 L 1389.94 26.311 L 1389.94 26.311 Q 1389.94 25.395 1390.637 24.865 L 1390.637 24.865 L 1390.637 24.865 Q 1391.334 24.335 1392.549 24.335 L 1392.549 24.335 L 1392.549 24.335 Q 1393.681 24.335 1394.762 24.827 L 1394.762 24.827 L 1394.384 25.75 L 1394.384 25.75 Q 1393.329 25.285 1392.472 25.285 L 1392.472 25.285 L 1392.472 25.285 Q 1391.718 25.285 1391.334 25.538 L 1391.334 25.538 L 1391.334 25.538 Q 1390.951 25.791 1390.951 26.235 L 1390.951 26.235 L 1390.951 26.235 Q 1390.951 26.536 1391.094 26.748 L 1391.094 26.748 L 1391.094 26.748 Q 1391.238 26.96 1391.558 27.151 L 1391.558 27.151 L 1391.558 27.151 Q 1391.878 27.343 1392.786 27.705 L 1392.786 27.705 L 1392.786 27.705 Q 1394.033 28.19 1394.471 28.683 L 1394.471 28.683 L 1394.471 28.683 Q 1394.909 29.175 1394.909 29.92 Z  M 1402.685 28.211 L 1402.685 28.211 L 1402.685 28.211 Q 1402.685 30.043 1401.821 31.072 L 1401.821 31.072 L 1401.821 31.072 Q 1400.958 32.101 1399.436 32.101 L 1399.436 32.101 L 1399.436 32.101 Q 1398.496 32.101 1397.767 31.629 L 1397.767 31.629 L 1397.767 31.629 Q 1397.038 31.157 1396.642 30.275 L 1396.642 30.275 L 1396.642 30.275 Q 1396.245 29.394 1396.245 28.211 L 1396.245 28.211 L 1396.245 28.211 Q 1396.245 26.379 1397.102 25.357 L 1397.102 25.357 L 1397.102 25.357 Q 1397.959 24.335 1399.481 24.335 L 1399.481 24.335 L 1399.481 24.335 Q 1400.952 24.335 1401.818 25.381 L 1401.818 25.381 L 1401.818 25.381 Q 1402.685 26.427 1402.685 28.211 Z  M 1397.345 28.211 L 1397.345 28.211 L 1397.345 28.211 Q 1397.345 29.646 1397.882 30.398 L 1397.882 30.398 L 1397.882 30.398 Q 1398.419 31.15 1399.462 31.15 L 1399.462 31.15 L 1399.462 31.15 Q 1400.504 31.15 1401.044 30.402 L 1401.044 30.402 L 1401.044 30.402 Q 1401.585 29.653 1401.585 28.211 L 1401.585 28.211 L 1401.585 28.211 Q 1401.585 26.782 1401.044 26.041 L 1401.044 26.041 L 1401.044 26.041 Q 1400.504 25.299 1399.449 25.299 L 1399.449 25.299 L 1399.449 25.299 Q 1398.407 25.299 1397.876 26.03 L 1397.876 26.03 L 1397.876 26.03 Q 1397.345 26.762 1397.345 28.211 Z  M 1410.595 28.211 L 1410.595 28.211 L 1410.595 28.211 Q 1410.595 30.043 1409.731 31.072 L 1409.731 31.072 L 1409.731 31.072 Q 1408.868 32.101 1407.346 32.101 L 1407.346 32.101 L 1407.346 32.101 Q 1406.406 32.101 1405.677 31.629 L 1405.677 31.629 L 1405.677 31.629 Q 1404.948 31.157 1404.552 30.275 L 1404.552 30.275 L 1404.552 30.275 Q 1404.155 29.394 1404.155 28.211 L 1404.155 28.211 L 1404.155 28.211 Q 1404.155 26.379 1405.012 25.357 L 1405.012 25.357 L 1405.012 25.357 Q 1405.869 24.335 1407.391 24.335 L 1407.391 24.335 L 1407.391 24.335 Q 1408.862 24.335 1409.728 25.381 L 1409.728 25.381 L 1409.728 25.381 Q 1410.595 26.427 1410.595 28.211 Z  M 1405.255 28.211 L 1405.255 28.211 L 1405.255 28.211 Q 1405.255 29.646 1405.792 30.398 L 1405.792 30.398 L 1405.792 30.398 Q 1406.33 31.15 1407.372 31.15 L 1407.372 31.15 L 1407.372 31.15 Q 1408.414 31.15 1408.955 30.402 L 1408.955 30.402 L 1408.955 30.402 Q 1409.495 29.653 1409.495 28.211 L 1409.495 28.211 L 1409.495 28.211 Q 1409.495 26.782 1408.955 26.041 L 1408.955 26.041 L 1408.955 26.041 Q 1408.414 25.299 1407.359 25.299 L 1407.359 25.299 L 1407.359 25.299 Q 1406.317 25.299 1405.786 26.03 L 1405.786 26.03 L 1405.786 26.03 Q 1405.255 26.762 1405.255 28.211 Z  M 1418.313 31.964 L 1417.251 31.964 L 1417.251 27.117 L 1417.251 27.117 Q 1417.251 26.201 1416.861 25.75 L 1416.861 25.75 L 1416.861 25.75 Q 1416.471 25.299 1415.64 25.299 L 1415.64 25.299 L 1415.64 25.299 Q 1414.54 25.299 1414.029 25.935 L 1414.029 25.935 L 1414.029 25.935 Q 1413.517 26.57 1413.517 28.033 L 1413.517 28.033 L 1413.517 31.964 L 1412.456 31.964 L 1412.456 24.472 L 1413.319 24.472 L 1413.491 25.497 L 1413.543 25.497 L 1413.543 25.497 Q 1413.869 24.943 1414.457 24.639 L 1414.457 24.639 L 1414.457 24.639 Q 1415.045 24.335 1415.768 24.335 L 1415.768 24.335 L 1415.768 24.335 Q 1417.034 24.335 1417.674 24.988 L 1417.674 24.988 L 1417.674 24.988 Q 1418.313 25.641 1418.313 27.076 L 1418.313 27.076 L 1418.313 31.964 Z  M 1338.361 31.964 L 1337.575 31.964 L 1337.364 30.897 L 1337.313 30.897 L 1337.313 30.897 Q 1336.788 31.602 1336.267 31.851 L 1336.267 31.851 L 1336.267 31.851 Q 1335.746 32.101 1334.966 32.101 L 1334.966 32.101 L 1334.966 32.101 Q 1333.924 32.101 1333.332 31.526 L 1333.332 31.526 L 1333.332 31.526 Q 1332.741 30.952 1332.741 29.893 L 1332.741 29.893 L 1332.741 29.893 Q 1332.741 27.623 1336.136 27.514 L 1336.136 27.514 L 1337.326 27.473 L 1337.326 27.008 L 1337.326 27.008 Q 1337.326 26.126 1336.971 25.706 L 1336.971 25.706 L 1336.971 25.706 Q 1336.616 25.285 1335.836 25.285 L 1335.836 25.285 L 1335.836 25.285 Q 1334.96 25.285 1333.853 25.859 L 1333.853 25.859 L 1333.527 24.991 L 1333.527 24.991 Q 1334.045 24.69 1334.662 24.52 L 1334.662 24.52 L 1334.662 24.52 Q 1335.279 24.349 1335.9 24.349 L 1335.9 24.349 L 1335.9 24.349 Q 1337.153 24.349 1337.757 24.943 L 1337.757 24.943 L 1337.757 24.943 Q 1338.361 25.538 1338.361 26.851 L 1338.361 26.851 L 1338.361 31.964 Z  M 1335.177 31.164 L 1335.177 31.164 L 1335.177 31.164 Q 1336.168 31.164 1336.734 30.583 L 1336.734 30.583 L 1336.734 30.583 Q 1337.3 30.002 1337.3 28.956 L 1337.3 28.956 L 1337.3 28.279 L 1336.238 28.327 L 1336.238 28.327 Q 1334.972 28.375 1334.413 28.748 L 1334.413 28.748 L 1334.413 28.748 Q 1333.853 29.12 1333.853 29.906 L 1333.853 29.906 L 1333.853 29.906 Q 1333.853 30.521 1334.202 30.843 L 1334.202 30.843 L 1334.202 30.843 Q 1334.55 31.164 1335.177 31.164 Z  M 1343.324 31.964 L 1342.083 31.964 L 1339.423 24.472 L 1340.561 24.472 L 1342.07 28.915 L 1342.07 28.915 Q 1342.582 30.474 1342.671 30.938 L 1342.671 30.938 L 1342.723 30.938 L 1342.723 30.938 Q 1342.793 30.576 1343.167 29.438 L 1343.167 29.438 L 1343.167 29.438 Q 1343.541 28.3 1344.846 24.472 L 1344.846 24.472 L 1345.984 24.472 L 1343.324 31.964 Z  M 1352.206 31.964 L 1351.419 31.964 L 1351.208 30.897 L 1351.157 30.897 L 1351.157 30.897 Q 1350.633 31.602 1350.112 31.851 L 1350.112 31.851 L 1350.112 31.851 Q 1349.59 32.101 1348.81 32.101 L 1348.81 32.101 L 1348.81 32.101 Q 1347.768 32.101 1347.176 31.526 L 1347.176 31.526 L 1347.176 31.526 Q 1346.585 30.952 1346.585 29.893 L 1346.585 29.893 L 1346.585 29.893 Q 1346.585 27.623 1349.98 27.514 L 1349.98 27.514 L 1351.17 27.473 L 1351.17 27.008 L 1351.17 27.008 Q 1351.17 26.126 1350.815 25.706 L 1350.815 25.706 L 1350.815 25.706 Q 1350.46 25.285 1349.68 25.285 L 1349.68 25.285 L 1349.68 25.285 Q 1348.804 25.285 1347.698 25.859 L 1347.698 25.859 L 1347.371 24.991 L 1347.371 24.991 Q 1347.889 24.69 1348.507 24.52 L 1348.507 24.52 L 1348.507 24.52 Q 1349.124 24.349 1349.744 24.349 L 1349.744 24.349 L 1349.744 24.349 Q 1350.997 24.349 1351.601 24.943 L 1351.601 24.943 L 1351.601 24.943 Q 1352.206 25.538 1352.206 26.851 L 1352.206 26.851 L 1352.206 31.964 Z  M 1349.021 31.164 L 1349.021 31.164 L 1349.021 31.164 Q 1350.012 31.164 1350.578 30.583 L 1350.578 30.583 L 1350.578 30.583 Q 1351.144 30.002 1351.144 28.956 L 1351.144 28.956 L 1351.144 28.279 L 1350.083 28.327 L 1350.083 28.327 Q 1348.817 28.375 1348.257 28.748 L 1348.257 28.748 L 1348.257 28.748 Q 1347.698 29.12 1347.698 29.906 L 1347.698 29.906 L 1347.698 29.906 Q 1347.698 30.521 1348.046 30.843 L 1348.046 30.843 L 1348.046 30.843 Q 1348.395 31.164 1349.021 31.164 Z  M 1355.454 24.472 L 1355.454 31.964 L 1354.393 31.964 L 1354.393 24.472 L 1355.454 24.472 Z  M 1354.303 22.441 L 1354.303 22.441 L 1354.303 22.441 Q 1354.303 22.052 1354.482 21.871 L 1354.482 21.871 L 1354.482 21.871 Q 1354.661 21.689 1354.93 21.689 L 1354.93 21.689 L 1354.93 21.689 Q 1355.186 21.689 1355.371 21.874 L 1355.371 21.874 L 1355.371 21.874 Q 1355.557 22.059 1355.557 22.441 L 1355.557 22.441 L 1355.557 22.441 Q 1355.557 22.824 1355.371 23.012 L 1355.371 23.012 L 1355.371 23.012 Q 1355.186 23.2 1354.93 23.2 L 1354.93 23.2 L 1354.93 23.2 Q 1354.661 23.2 1354.482 23.012 L 1354.482 23.012 L 1354.482 23.012 Q 1354.303 22.824 1354.303 22.441 Z  M 1358.767 21.327 L 1358.767 31.964 L 1357.705 31.964 L 1357.705 21.327 L 1358.767 21.327 Z  M 1366.114 31.964 L 1365.327 31.964 L 1365.116 30.897 L 1365.065 30.897 L 1365.065 30.897 Q 1364.541 31.602 1364.02 31.851 L 1364.02 31.851 L 1364.02 31.851 Q 1363.499 32.101 1362.718 32.101 L 1362.718 32.101 L 1362.718 32.101 Q 1361.676 32.101 1361.085 31.526 L 1361.085 31.526 L 1361.085 31.526 Q 1360.493 30.952 1360.493 29.893 L 1360.493 29.893 L 1360.493 29.893 Q 1360.493 27.623 1363.889 27.514 L 1363.889 27.514 L 1365.078 27.473 L 1365.078 27.008 L 1365.078 27.008 Q 1365.078 26.126 1364.723 25.706 L 1364.723 25.706 L 1364.723 25.706 Q 1364.368 25.285 1363.588 25.285 L 1363.588 25.285 L 1363.588 25.285 Q 1362.712 25.285 1361.606 25.859 L 1361.606 25.859 L 1361.28 24.991 L 1361.28 24.991 Q 1361.798 24.69 1362.415 24.52 L 1362.415 24.52 L 1362.415 24.52 Q 1363.032 24.349 1363.652 24.349 L 1363.652 24.349 L 1363.652 24.349 Q 1364.905 24.349 1365.51 24.943 L 1365.51 24.943 L 1365.51 24.943 Q 1366.114 25.538 1366.114 26.851 L 1366.114 26.851 L 1366.114 31.964 Z  M 1362.929 31.164 L 1362.929 31.164 L 1362.929 31.164 Q 1363.921 31.164 1364.487 30.583 L 1364.487 30.583 L 1364.487 30.583 Q 1365.052 30.002 1365.052 28.956 L 1365.052 28.956 L 1365.052 28.279 L 1363.991 28.327 L 1363.991 28.327 Q 1362.725 28.375 1362.165 28.748 L 1362.165 28.748 L 1362.165 28.748 Q 1361.606 29.12 1361.606 29.906 L 1361.606 29.906 L 1361.606 29.906 Q 1361.606 30.521 1361.954 30.843 L 1361.954 30.843 L 1361.954 30.843 Q 1362.303 31.164 1362.929 31.164 Z  M 1371.562 24.349 L 1371.562 24.349 L 1371.562 24.349 Q 1372.943 24.349 1373.708 25.357 L 1373.708 25.357 L 1373.708 25.357 Q 1374.472 26.365 1374.472 28.211 L 1374.472 28.211 L 1374.472 28.211 Q 1374.472 30.057 1373.701 31.079 L 1373.701 31.079 L 1373.701 31.079 Q 1372.931 32.101 1371.562 32.101 L 1371.562 32.101 L 1371.562 32.101 Q 1370.878 32.101 1370.312 31.831 L 1370.312 31.831 L 1370.312 31.831 Q 1369.746 31.561 1369.362 31 L 1369.362 31 L 1369.286 31 L 1369.062 31.964 L 1368.301 31.964 L 1368.301 21.327 L 1369.362 21.327 L 1369.362 23.911 L 1369.362 23.911 Q 1369.362 24.779 1369.311 25.47 L 1369.311 25.47 L 1369.362 25.47 L 1369.362 25.47 Q 1370.104 24.349 1371.562 24.349 Z  M 1371.409 25.299 L 1371.409 25.299 L 1371.409 25.299 Q 1370.322 25.299 1369.842 25.965 L 1369.842 25.965 L 1369.842 25.965 Q 1369.362 26.632 1369.362 28.211 L 1369.362 28.211 L 1369.362 28.211 Q 1369.362 29.79 1369.855 30.47 L 1369.855 30.47 L 1369.855 30.47 Q 1370.347 31.15 1371.434 31.15 L 1371.434 31.15 L 1371.434 31.15 Q 1372.413 31.15 1372.892 30.388 L 1372.892 30.388 L 1372.892 30.388 Q 1373.372 29.626 1373.372 28.197 L 1373.372 28.197 L 1373.372 28.197 Q 1373.372 26.734 1372.892 26.017 L 1372.892 26.017 L 1372.892 26.017 Q 1372.413 25.299 1371.409 25.299 Z  M 1377.388 21.327 L 1377.388 31.964 L 1376.326 31.964 L 1376.326 21.327 L 1377.388 21.327 Z  M 1382.599 32.101 L 1382.599 32.101 L 1382.599 32.101 Q 1381.045 32.101 1380.147 31.089 L 1380.147 31.089 L 1380.147 31.089 Q 1379.248 30.077 1379.248 28.279 L 1379.248 28.279 L 1379.248 28.279 Q 1379.248 26.468 1380.083 25.401 L 1380.083 25.401 L 1380.083 25.401 Q 1380.917 24.335 1382.324 24.335 L 1382.324 24.335 L 1382.324 24.335 Q 1383.642 24.335 1384.409 25.261 L 1384.409 25.261 L 1384.409 25.261 Q 1385.176 26.188 1385.176 27.705 L 1385.176 27.705 L 1385.176 28.423 L 1380.348 28.423 L 1380.348 28.423 Q 1380.38 29.742 1380.972 30.426 L 1380.972 30.426 L 1380.972 30.426 Q 1381.563 31.109 1382.638 31.109 L 1382.638 31.109 L 1382.638 31.109 Q 1383.769 31.109 1384.876 30.604 L 1384.876 30.604 L 1384.876 31.615 L 1384.876 31.615 Q 1384.313 31.875 1383.811 31.988 L 1383.811 31.988 L 1383.811 31.988 Q 1383.309 32.101 1382.599 32.101 Z  M 1382.311 25.285 L 1382.311 25.285 L 1382.311 25.285 Q 1381.467 25.285 1380.965 25.873 L 1380.965 25.873 L 1380.965 25.873 Q 1380.463 26.461 1380.374 27.5 L 1380.374 27.5 L 1384.038 27.5 L 1384.038 27.5 Q 1384.038 26.427 1383.59 25.856 L 1383.59 25.856 L 1383.59 25.856 Q 1383.143 25.285 1382.311 25.285 Z  M 1317.752 24.349 L 1317.752 24.349 L 1317.752 24.349 Q 1319.133 24.349 1319.897 25.357 L 1319.897 25.357 L 1319.897 25.357 Q 1320.661 26.365 1320.661 28.211 L 1320.661 28.211 L 1320.661 28.211 Q 1320.661 30.057 1319.891 31.079 L 1319.891 31.079 L 1319.891 31.079 Q 1319.12 32.101 1317.752 32.101 L 1317.752 32.101 L 1317.752 32.101 Q 1317.068 32.101 1316.502 31.831 L 1316.502 31.831 L 1316.502 31.831 Q 1315.936 31.561 1315.552 31 L 1315.552 31 L 1315.475 31 L 1315.251 31.964 L 1314.491 31.964 L 1314.491 21.327 L 1315.552 21.327 L 1315.552 23.911 L 1315.552 23.911 Q 1315.552 24.779 1315.501 25.47 L 1315.501 25.47 L 1315.552 25.47 L 1315.552 25.47 Q 1316.294 24.349 1317.752 24.349 Z  M 1317.598 25.299 L 1317.598 25.299 L 1317.598 25.299 Q 1316.511 25.299 1316.032 25.965 L 1316.032 25.965 L 1316.032 25.965 Q 1315.552 26.632 1315.552 28.211 L 1315.552 28.211 L 1315.552 28.211 Q 1315.552 29.79 1316.044 30.47 L 1316.044 30.47 L 1316.044 30.47 Q 1316.537 31.15 1317.624 31.15 L 1317.624 31.15 L 1317.624 31.15 Q 1318.602 31.15 1319.082 30.388 L 1319.082 30.388 L 1319.082 30.388 Q 1319.561 29.626 1319.561 28.197 L 1319.561 28.197 L 1319.561 28.197 Q 1319.561 26.734 1319.082 26.017 L 1319.082 26.017 L 1319.082 26.017 Q 1318.602 25.299 1317.598 25.299 Z  M 1325.476 32.101 L 1325.476 32.101 L 1325.476 32.101 Q 1323.923 32.101 1323.024 31.089 L 1323.024 31.089 L 1323.024 31.089 Q 1322.126 30.077 1322.126 28.279 L 1322.126 28.279 L 1322.126 28.279 Q 1322.126 26.468 1322.96 25.401 L 1322.96 25.401 L 1322.96 25.401 Q 1323.795 24.335 1325.201 24.335 L 1325.201 24.335 L 1325.201 24.335 Q 1326.519 24.335 1327.286 25.261 L 1327.286 25.261 L 1327.286 25.261 Q 1328.053 26.188 1328.053 27.705 L 1328.053 27.705 L 1328.053 28.423 L 1323.226 28.423 L 1323.226 28.423 Q 1323.257 29.742 1323.849 30.426 L 1323.849 30.426 L 1323.849 30.426 Q 1324.44 31.109 1325.515 31.109 L 1325.515 31.109 L 1325.515 31.109 Q 1326.647 31.109 1327.753 30.604 L 1327.753 30.604 L 1327.753 31.615 L 1327.753 31.615 Q 1327.19 31.875 1326.688 31.988 L 1326.688 31.988 L 1326.688 31.988 Q 1326.186 32.101 1325.476 32.101 Z  M 1325.189 25.285 L 1325.189 25.285 L 1325.189 25.285 Q 1324.345 25.285 1323.843 25.873 L 1323.843 25.873 L 1323.843 25.873 Q 1323.341 26.461 1323.251 27.5 L 1323.251 27.5 L 1326.915 27.5 L 1326.915 27.5 Q 1326.915 26.427 1326.468 25.856 L 1326.468 25.856 L 1326.468 25.856 Q 1326.02 25.285 1325.189 25.285 Z  M 1297.948 31.964 L 1296.688 31.964 L 1295.403 27.568 L 1295.403 27.568 Q 1295.281 27.165 1294.949 25.736 L 1294.949 25.736 L 1294.898 25.736 L 1294.898 25.736 Q 1294.642 26.933 1294.45 27.582 L 1294.45 27.582 L 1293.126 31.964 L 1291.898 31.964 L 1289.986 24.472 L 1291.099 24.472 L 1291.099 24.472 Q 1291.777 27.295 1292.132 28.771 L 1292.132 28.771 L 1292.132 28.771 Q 1292.487 30.248 1292.538 30.761 L 1292.538 30.761 L 1292.589 30.761 L 1292.589 30.761 Q 1292.659 30.371 1292.816 29.752 L 1292.816 29.752 L 1292.816 29.752 Q 1292.973 29.134 1293.088 28.771 L 1293.088 28.771 L 1294.373 24.472 L 1295.524 24.472 L 1296.778 28.771 L 1296.778 28.771 Q 1297.136 29.947 1297.264 30.747 L 1297.264 30.747 L 1297.315 30.747 L 1297.315 30.747 Q 1297.34 30.501 1297.452 29.988 L 1297.452 29.988 L 1297.452 29.988 Q 1297.564 29.476 1298.785 24.472 L 1298.785 24.472 L 1299.885 24.472 L 1297.948 31.964 Z  M 1302.213 24.472 L 1302.213 31.964 L 1301.151 31.964 L 1301.151 24.472 L 1302.213 24.472 Z  M 1301.062 22.441 L 1301.062 22.441 L 1301.062 22.441 Q 1301.062 22.052 1301.241 21.871 L 1301.241 21.871 L 1301.241 21.871 Q 1301.42 21.689 1301.689 21.689 L 1301.689 21.689 L 1301.689 21.689 Q 1301.944 21.689 1302.13 21.874 L 1302.13 21.874 L 1302.13 21.874 Q 1302.315 22.059 1302.315 22.441 L 1302.315 22.441 L 1302.315 22.441 Q 1302.315 22.824 1302.13 23.012 L 1302.13 23.012 L 1302.13 23.012 Q 1301.944 23.2 1301.689 23.2 L 1301.689 23.2 L 1301.689 23.2 Q 1301.42 23.2 1301.241 23.012 L 1301.241 23.012 L 1301.241 23.012 Q 1301.062 22.824 1301.062 22.441 Z  M 1305.525 21.327 L 1305.525 31.964 L 1304.464 31.964 L 1304.464 21.327 L 1305.525 21.327 Z  M 1308.838 21.327 L 1308.838 31.964 L 1307.776 31.964 L 1307.776 21.327 L 1308.838 21.327 Z  M 1243.549 32.101 L 1243.549 32.101 L 1243.549 32.101 Q 1242.027 32.101 1241.193 31.099 L 1241.193 31.099 L 1241.193 31.099 Q 1240.358 30.098 1240.358 28.266 L 1240.358 28.266 L 1240.358 28.266 Q 1240.358 26.386 1241.205 25.36 L 1241.205 25.36 L 1241.205 25.36 Q 1242.053 24.335 1243.619 24.335 L 1243.619 24.335 L 1243.619 24.335 Q 1244.125 24.335 1244.63 24.451 L 1244.63 24.451 L 1244.63 24.451 Q 1245.135 24.567 1245.423 24.725 L 1245.423 24.725 L 1245.096 25.688 L 1245.096 25.688 Q 1244.745 25.538 1244.329 25.439 L 1244.329 25.439 L 1244.329 25.439 Q 1243.913 25.34 1243.594 25.34 L 1243.594 25.34 L 1243.594 25.34 Q 1241.458 25.34 1241.458 28.252 L 1241.458 28.252 L 1241.458 28.252 Q 1241.458 29.633 1241.979 30.371 L 1241.979 30.371 L 1241.979 30.371 Q 1242.5 31.109 1243.523 31.109 L 1243.523 31.109 L 1243.523 31.109 Q 1244.399 31.109 1245.32 30.706 L 1245.32 30.706 L 1245.32 31.711 L 1245.32 31.711 Q 1244.617 32.101 1243.549 32.101 Z  M 1253.032 28.211 L 1253.032 28.211 L 1253.032 28.211 Q 1253.032 30.043 1252.169 31.072 L 1252.169 31.072 L 1252.169 31.072 Q 1251.306 32.101 1249.784 32.101 L 1249.784 32.101 L 1249.784 32.101 Q 1248.844 32.101 1248.115 31.629 L 1248.115 31.629 L 1248.115 31.629 Q 1247.386 31.157 1246.989 30.275 L 1246.989 30.275 L 1246.989 30.275 Q 1246.593 29.394 1246.593 28.211 L 1246.593 28.211 L 1246.593 28.211 Q 1246.593 26.379 1247.45 25.357 L 1247.45 25.357 L 1247.45 25.357 Q 1248.307 24.335 1249.828 24.335 L 1249.828 24.335 L 1249.828 24.335 Q 1251.299 24.335 1252.166 25.381 L 1252.166 25.381 L 1252.166 25.381 Q 1253.032 26.427 1253.032 28.211 Z  M 1247.693 28.211 L 1247.693 28.211 L 1247.693 28.211 Q 1247.693 29.646 1248.23 30.398 L 1248.23 30.398 L 1248.23 30.398 Q 1248.767 31.15 1249.809 31.15 L 1249.809 31.15 L 1249.809 31.15 Q 1250.852 31.15 1251.392 30.402 L 1251.392 30.402 L 1251.392 30.402 Q 1251.932 29.653 1251.932 28.211 L 1251.932 28.211 L 1251.932 28.211 Q 1251.932 26.782 1251.392 26.041 L 1251.392 26.041 L 1251.392 26.041 Q 1250.852 25.299 1249.797 25.299 L 1249.797 25.299 L 1249.797 25.299 Q 1248.754 25.299 1248.223 26.03 L 1248.223 26.03 L 1248.223 26.03 Q 1247.693 26.762 1247.693 28.211 Z  M 1260.75 31.964 L 1259.689 31.964 L 1259.689 27.117 L 1259.689 27.117 Q 1259.689 26.201 1259.299 25.75 L 1259.299 25.75 L 1259.299 25.75 Q 1258.909 25.299 1258.077 25.299 L 1258.077 25.299 L 1258.077 25.299 Q 1256.978 25.299 1256.466 25.935 L 1256.466 25.935 L 1256.466 25.935 Q 1255.954 26.57 1255.954 28.033 L 1255.954 28.033 L 1255.954 31.964 L 1254.893 31.964 L 1254.893 24.472 L 1255.756 24.472 L 1255.929 25.497 L 1255.98 25.497 L 1255.98 25.497 Q 1256.306 24.943 1256.894 24.639 L 1256.894 24.639 L 1256.894 24.639 Q 1257.483 24.335 1258.205 24.335 L 1258.205 24.335 L 1258.205 24.335 Q 1259.472 24.335 1260.111 24.988 L 1260.111 24.988 L 1260.111 24.988 Q 1260.75 25.641 1260.75 27.076 L 1260.75 27.076 L 1260.75 31.964 Z  M 1265.195 31.164 L 1265.195 31.164 L 1265.195 31.164 Q 1265.476 31.164 1265.738 31.12 L 1265.738 31.12 L 1265.738 31.12 Q 1266 31.075 1266.154 31.027 L 1266.154 31.027 L 1266.154 31.896 L 1266.154 31.896 Q 1265.981 31.984 1265.645 32.042 L 1265.645 32.042 L 1265.645 32.042 Q 1265.31 32.101 1265.041 32.101 L 1265.041 32.101 L 1265.041 32.101 Q 1263.008 32.101 1263.008 29.811 L 1263.008 29.811 L 1263.008 25.354 L 1262.004 25.354 L 1262.004 24.807 L 1263.008 24.335 L 1263.455 22.735 L 1264.069 22.735 L 1264.069 24.472 L 1266.103 24.472 L 1266.103 25.354 L 1264.069 25.354 L 1264.069 29.763 L 1264.069 29.763 Q 1264.069 30.439 1264.37 30.802 L 1264.37 30.802 L 1264.37 30.802 Q 1264.67 31.164 1265.195 31.164 Z  M 1270.515 32.101 L 1270.515 32.101 L 1270.515 32.101 Q 1268.961 32.101 1268.063 31.089 L 1268.063 31.089 L 1268.063 31.089 Q 1267.164 30.077 1267.164 28.279 L 1267.164 28.279 L 1267.164 28.279 Q 1267.164 26.468 1267.999 25.401 L 1267.999 25.401 L 1267.999 25.401 Q 1268.833 24.335 1270.24 24.335 L 1270.24 24.335 L 1270.24 24.335 Q 1271.557 24.335 1272.325 25.261 L 1272.325 25.261 L 1272.325 25.261 Q 1273.092 26.188 1273.092 27.705 L 1273.092 27.705 L 1273.092 28.423 L 1268.264 28.423 L 1268.264 28.423 Q 1268.296 29.742 1268.888 30.426 L 1268.888 30.426 L 1268.888 30.426 Q 1269.479 31.109 1270.553 31.109 L 1270.553 31.109 L 1270.553 31.109 Q 1271.685 31.109 1272.791 30.604 L 1272.791 30.604 L 1272.791 31.615 L 1272.791 31.615 Q 1272.229 31.875 1271.727 31.988 L 1271.727 31.988 L 1271.727 31.988 Q 1271.225 32.101 1270.515 32.101 Z  M 1270.227 25.285 L 1270.227 25.285 L 1270.227 25.285 Q 1269.383 25.285 1268.881 25.873 L 1268.881 25.873 L 1268.881 25.873 Q 1268.379 26.461 1268.29 27.5 L 1268.29 27.5 L 1271.954 27.5 L 1271.954 27.5 Q 1271.954 26.427 1271.506 25.856 L 1271.506 25.856 L 1271.506 25.856 Q 1271.058 25.285 1270.227 25.285 Z  M 1280.759 31.964 L 1279.698 31.964 L 1279.698 27.117 L 1279.698 27.117 Q 1279.698 26.201 1279.308 25.75 L 1279.308 25.75 L 1279.308 25.75 Q 1278.917 25.299 1278.086 25.299 L 1278.086 25.299 L 1278.086 25.299 Q 1276.986 25.299 1276.475 25.935 L 1276.475 25.935 L 1276.475 25.935 Q 1275.963 26.57 1275.963 28.033 L 1275.963 28.033 L 1275.963 31.964 L 1274.902 31.964 L 1274.902 24.472 L 1275.765 24.472 L 1275.938 25.497 L 1275.989 25.497 L 1275.989 25.497 Q 1276.315 24.943 1276.903 24.639 L 1276.903 24.639 L 1276.903 24.639 Q 1277.491 24.335 1278.214 24.335 L 1278.214 24.335 L 1278.214 24.335 Q 1279.48 24.335 1280.12 24.988 L 1280.12 24.988 L 1280.12 24.988 Q 1280.759 25.641 1280.759 27.076 L 1280.759 27.076 L 1280.759 31.964 Z  M 1285.203 31.164 L 1285.203 31.164 L 1285.203 31.164 Q 1285.485 31.164 1285.747 31.12 L 1285.747 31.12 L 1285.747 31.12 Q 1286.009 31.075 1286.163 31.027 L 1286.163 31.027 L 1286.163 31.896 L 1286.163 31.896 Q 1285.99 31.984 1285.654 32.042 L 1285.654 32.042 L 1285.654 32.042 Q 1285.318 32.101 1285.05 32.101 L 1285.05 32.101 L 1285.05 32.101 Q 1283.016 32.101 1283.016 29.811 L 1283.016 29.811 L 1283.016 25.354 L 1282.012 25.354 L 1282.012 24.807 L 1283.016 24.335 L 1283.464 22.735 L 1284.078 22.735 L 1284.078 24.472 L 1286.111 24.472 L 1286.111 25.354 L 1284.078 25.354 L 1284.078 29.763 L 1284.078 29.763 Q 1284.078 30.439 1284.378 30.802 L 1284.378 30.802 L 1284.378 30.802 Q 1284.679 31.164 1285.203 31.164 Z  M 1211.167 32.005 L 1208.34 24.472 L 1209.479 24.472 L 1211.013 28.744 L 1211.013 28.744 Q 1211.519 30.207 1211.64 30.856 L 1211.64 30.856 L 1211.691 30.856 L 1211.691 30.856 Q 1211.774 30.508 1212.04 29.664 L 1212.04 29.664 L 1212.04 29.664 Q 1212.305 28.819 1213.776 24.472 L 1213.776 24.472 L 1214.914 24.472 L 1211.902 33.003 L 1211.902 33.003 Q 1211.455 34.268 1210.857 34.797 L 1210.857 34.797 L 1210.857 34.797 Q 1210.259 35.327 1209.389 35.327 L 1209.389 35.327 L 1209.389 35.327 Q 1208.903 35.327 1208.43 35.211 L 1208.43 35.211 L 1208.43 34.302 L 1208.43 34.302 Q 1208.782 34.384 1209.216 34.384 L 1209.216 34.384 L 1209.216 34.384 Q 1210.31 34.384 1210.777 33.071 L 1210.777 33.071 L 1211.167 32.005 Z  M 1222.102 28.211 L 1222.102 28.211 L 1222.102 28.211 Q 1222.102 30.043 1221.238 31.072 L 1221.238 31.072 L 1221.238 31.072 Q 1220.375 32.101 1218.853 32.101 L 1218.853 32.101 L 1218.853 32.101 Q 1217.913 32.101 1217.184 31.629 L 1217.184 31.629 L 1217.184 31.629 Q 1216.455 31.157 1216.059 30.275 L 1216.059 30.275 L 1216.059 30.275 Q 1215.662 29.394 1215.662 28.211 L 1215.662 28.211 L 1215.662 28.211 Q 1215.662 26.379 1216.519 25.357 L 1216.519 25.357 L 1216.519 25.357 Q 1217.376 24.335 1218.898 24.335 L 1218.898 24.335 L 1218.898 24.335 Q 1220.369 24.335 1221.235 25.381 L 1221.235 25.381 L 1221.235 25.381 Q 1222.102 26.427 1222.102 28.211 Z  M 1216.762 28.211 L 1216.762 28.211 L 1216.762 28.211 Q 1216.762 29.646 1217.299 30.398 L 1217.299 30.398 L 1217.299 30.398 Q 1217.836 31.15 1218.879 31.15 L 1218.879 31.15 L 1218.879 31.15 Q 1219.921 31.15 1220.461 30.402 L 1220.461 30.402 L 1220.461 30.402 Q 1221.002 29.653 1221.002 28.211 L 1221.002 28.211 L 1221.002 28.211 Q 1221.002 26.782 1220.461 26.041 L 1220.461 26.041 L 1220.461 26.041 Q 1219.921 25.299 1218.866 25.299 L 1218.866 25.299 L 1218.866 25.299 Q 1217.824 25.299 1217.293 26.03 L 1217.293 26.03 L 1217.293 26.03 Q 1216.762 26.762 1216.762 28.211 Z  M 1223.886 24.472 L 1224.96 24.472 L 1224.96 29.332 L 1224.96 29.332 Q 1224.96 30.248 1225.35 30.699 L 1225.35 30.699 L 1225.35 30.699 Q 1225.74 31.15 1226.571 31.15 L 1226.571 31.15 L 1226.571 31.15 Q 1227.671 31.15 1228.18 30.508 L 1228.18 30.508 L 1228.18 30.508 Q 1228.688 29.865 1228.688 28.409 L 1228.688 28.409 L 1228.688 24.472 L 1229.749 24.472 L 1229.749 31.964 L 1228.873 31.964 L 1228.72 30.959 L 1228.662 30.959 L 1228.662 30.959 Q 1228.336 31.513 1227.758 31.807 L 1227.758 31.807 L 1227.758 31.807 Q 1227.179 32.101 1226.437 32.101 L 1226.437 32.101 L 1226.437 32.101 Q 1225.158 32.101 1224.522 31.451 L 1224.522 31.451 L 1224.522 31.451 Q 1223.886 30.802 1223.886 29.373 L 1223.886 29.373 L 1223.886 24.472 Z  M 1235.198 24.335 L 1235.198 24.335 L 1235.198 24.335 Q 1235.664 24.335 1236.035 24.417 L 1236.035 24.417 L 1235.888 25.47 L 1235.888 25.47 Q 1235.453 25.367 1235.121 25.367 L 1235.121 25.367 L 1235.121 25.367 Q 1234.27 25.367 1233.666 26.105 L 1233.666 26.105 L 1233.666 26.105 Q 1233.062 26.844 1233.062 27.944 L 1233.062 27.944 L 1233.062 31.964 L 1232 31.964 L 1232 24.472 L 1232.876 24.472 L 1232.998 25.859 L 1233.049 25.859 L 1233.049 25.859 Q 1233.439 25.128 1233.989 24.731 L 1233.989 24.731 L 1233.989 24.731 Q 1234.539 24.335 1235.198 24.335 Z  M 1150.732 32.101 L 1150.732 32.101 L 1150.732 32.101 Q 1150.047 32.101 1149.481 31.831 L 1149.481 31.831 L 1149.481 31.831 Q 1148.916 31.561 1148.532 31 L 1148.532 31 L 1148.455 31 L 1148.455 31 Q 1148.532 31.656 1148.532 32.244 L 1148.532 32.244 L 1148.532 35.327 L 1147.47 35.327 L 1147.47 24.472 L 1148.334 24.472 L 1148.481 25.497 L 1148.532 25.497 L 1148.532 25.497 Q 1148.941 24.882 1149.485 24.608 L 1149.485 24.608 L 1149.485 24.608 Q 1150.028 24.335 1150.732 24.335 L 1150.732 24.335 L 1150.732 24.335 Q 1152.126 24.335 1152.883 25.354 L 1152.883 25.354 L 1152.883 25.354 Q 1153.641 26.372 1153.641 28.211 L 1153.641 28.211 L 1153.641 28.211 Q 1153.641 30.057 1152.871 31.079 L 1152.871 31.079 L 1152.871 31.079 Q 1152.1 32.101 1150.732 32.101 Z  M 1150.578 25.299 L 1150.578 25.299 L 1150.578 25.299 Q 1149.504 25.299 1149.024 25.935 L 1149.024 25.935 L 1149.024 25.935 Q 1148.545 26.57 1148.532 27.958 L 1148.532 27.958 L 1148.532 28.211 L 1148.532 28.211 Q 1148.532 29.79 1149.024 30.47 L 1149.024 30.47 L 1149.024 30.47 Q 1149.517 31.15 1150.604 31.15 L 1150.604 31.15 L 1150.604 31.15 Q 1151.512 31.15 1152.026 30.364 L 1152.026 30.364 L 1152.026 30.364 Q 1152.541 29.578 1152.541 28.197 L 1152.541 28.197 L 1152.541 28.197 Q 1152.541 26.796 1152.026 26.047 L 1152.026 26.047 L 1152.026 26.047 Q 1151.512 25.299 1150.578 25.299 Z  M 1158.693 24.335 L 1158.693 24.335 L 1158.693 24.335 Q 1159.16 24.335 1159.531 24.417 L 1159.531 24.417 L 1159.383 25.47 L 1159.383 25.47 Q 1158.949 25.367 1158.616 25.367 L 1158.616 25.367 L 1158.616 25.367 Q 1157.766 25.367 1157.161 26.105 L 1157.161 26.105 L 1157.161 26.105 Q 1156.557 26.844 1156.557 27.944 L 1156.557 27.944 L 1156.557 31.964 L 1155.496 31.964 L 1155.496 24.472 L 1156.372 24.472 L 1156.493 25.859 L 1156.544 25.859 L 1156.544 25.859 Q 1156.934 25.128 1157.484 24.731 L 1157.484 24.731 L 1157.484 24.731 Q 1158.034 24.335 1158.693 24.335 Z  M 1163.802 32.101 L 1163.802 32.101 L 1163.802 32.101 Q 1162.248 32.101 1161.35 31.089 L 1161.35 31.089 L 1161.35 31.089 Q 1160.451 30.077 1160.451 28.279 L 1160.451 28.279 L 1160.451 28.279 Q 1160.451 26.468 1161.286 25.401 L 1161.286 25.401 L 1161.286 25.401 Q 1162.12 24.335 1163.527 24.335 L 1163.527 24.335 L 1163.527 24.335 Q 1164.844 24.335 1165.612 25.261 L 1165.612 25.261 L 1165.612 25.261 Q 1166.379 26.188 1166.379 27.705 L 1166.379 27.705 L 1166.379 28.423 L 1161.551 28.423 L 1161.551 28.423 Q 1161.583 29.742 1162.175 30.426 L 1162.175 30.426 L 1162.175 30.426 Q 1162.766 31.109 1163.84 31.109 L 1163.84 31.109 L 1163.84 31.109 Q 1164.972 31.109 1166.079 30.604 L 1166.079 30.604 L 1166.079 31.615 L 1166.079 31.615 Q 1165.516 31.875 1165.014 31.988 L 1165.014 31.988 L 1165.014 31.988 Q 1164.512 32.101 1163.802 32.101 Z  M 1163.514 25.285 L 1163.514 25.285 L 1163.514 25.285 Q 1162.67 25.285 1162.168 25.873 L 1162.168 25.873 L 1162.168 25.873 Q 1161.666 26.461 1161.577 27.5 L 1161.577 27.5 L 1165.241 27.5 L 1165.241 27.5 Q 1165.241 26.427 1164.793 25.856 L 1164.793 25.856 L 1164.793 25.856 Q 1164.346 25.285 1163.514 25.285 Z  M 1170.964 31.964 L 1169.724 31.964 L 1167.063 24.472 L 1168.202 24.472 L 1169.711 28.915 L 1169.711 28.915 Q 1170.222 30.474 1170.312 30.938 L 1170.312 30.938 L 1170.363 30.938 L 1170.363 30.938 Q 1170.433 30.576 1170.807 29.438 L 1170.807 29.438 L 1170.807 29.438 Q 1171.181 28.3 1172.486 24.472 L 1172.486 24.472 L 1173.624 24.472 L 1170.964 31.964 Z  M 1175.811 24.472 L 1175.811 31.964 L 1174.75 31.964 L 1174.75 24.472 L 1175.811 24.472 Z  M 1174.66 22.441 L 1174.66 22.441 L 1174.66 22.441 Q 1174.66 22.052 1174.839 21.871 L 1174.839 21.871 L 1174.839 21.871 Q 1175.018 21.689 1175.287 21.689 L 1175.287 21.689 L 1175.287 21.689 Q 1175.543 21.689 1175.728 21.874 L 1175.728 21.874 L 1175.728 21.874 Q 1175.913 22.059 1175.913 22.441 L 1175.913 22.441 L 1175.913 22.441 Q 1175.913 22.824 1175.728 23.012 L 1175.728 23.012 L 1175.728 23.012 Q 1175.543 23.2 1175.287 23.2 L 1175.287 23.2 L 1175.287 23.2 Q 1175.018 23.2 1174.839 23.012 L 1174.839 23.012 L 1174.839 23.012 Q 1174.66 22.824 1174.66 22.441 Z  M 1181.023 32.101 L 1181.023 32.101 L 1181.023 32.101 Q 1179.469 32.101 1178.57 31.089 L 1178.57 31.089 L 1178.57 31.089 Q 1177.672 30.077 1177.672 28.279 L 1177.672 28.279 L 1177.672 28.279 Q 1177.672 26.468 1178.506 25.401 L 1178.506 25.401 L 1178.506 25.401 Q 1179.341 24.335 1180.748 24.335 L 1180.748 24.335 L 1180.748 24.335 Q 1182.065 24.335 1182.832 25.261 L 1182.832 25.261 L 1182.832 25.261 Q 1183.6 26.188 1183.6 27.705 L 1183.6 27.705 L 1183.6 28.423 L 1178.772 28.423 L 1178.772 28.423 Q 1178.804 29.742 1179.395 30.426 L 1179.395 30.426 L 1179.395 30.426 Q 1179.987 31.109 1181.061 31.109 L 1181.061 31.109 L 1181.061 31.109 Q 1182.193 31.109 1183.299 30.604 L 1183.299 30.604 L 1183.299 31.615 L 1183.299 31.615 Q 1182.736 31.875 1182.235 31.988 L 1182.235 31.988 L 1182.235 31.988 Q 1181.733 32.101 1181.023 32.101 Z  M 1180.735 25.285 L 1180.735 25.285 L 1180.735 25.285 Q 1179.891 25.285 1179.389 25.873 L 1179.389 25.873 L 1179.389 25.873 Q 1178.887 26.461 1178.797 27.5 L 1178.797 27.5 L 1182.462 27.5 L 1182.462 27.5 Q 1182.462 26.427 1182.014 25.856 L 1182.014 25.856 L 1182.014 25.856 Q 1181.566 25.285 1180.735 25.285 Z  M 1192.392 31.964 L 1191.133 31.964 L 1189.847 27.568 L 1189.847 27.568 Q 1189.726 27.165 1189.393 25.736 L 1189.393 25.736 L 1189.342 25.736 L 1189.342 25.736 Q 1189.086 26.933 1188.894 27.582 L 1188.894 27.582 L 1187.571 31.964 L 1186.343 31.964 L 1184.431 24.472 L 1185.544 24.472 L 1185.544 24.472 Q 1186.222 27.295 1186.576 28.771 L 1186.576 28.771 L 1186.576 28.771 Q 1186.931 30.248 1186.982 30.761 L 1186.982 30.761 L 1187.034 30.761 L 1187.034 30.761 Q 1187.104 30.371 1187.261 29.752 L 1187.261 29.752 L 1187.261 29.752 Q 1187.417 29.134 1187.532 28.771 L 1187.532 28.771 L 1188.818 24.472 L 1189.969 24.472 L 1191.222 28.771 L 1191.222 28.771 Q 1191.58 29.947 1191.708 30.747 L 1191.708 30.747 L 1191.759 30.747 L 1191.759 30.747 Q 1191.785 30.501 1191.897 29.988 L 1191.897 29.988 L 1191.897 29.988 Q 1192.009 29.476 1193.23 24.472 L 1193.23 24.472 L 1194.33 24.472 L 1192.392 31.964 Z  M 1195.443 31.239 L 1195.443 31.239 L 1195.443 31.239 Q 1195.443 30.781 1195.638 30.545 L 1195.638 30.545 L 1195.638 30.545 Q 1195.833 30.31 1196.197 30.31 L 1196.197 30.31 L 1196.197 30.31 Q 1196.568 30.31 1196.776 30.545 L 1196.776 30.545 L 1196.776 30.545 Q 1196.984 30.781 1196.984 31.239 L 1196.984 31.239 L 1196.984 31.239 Q 1196.984 31.684 1196.773 31.923 L 1196.773 31.923 L 1196.773 31.923 Q 1196.562 32.162 1196.197 32.162 L 1196.197 32.162 L 1196.197 32.162 Q 1195.871 32.162 1195.657 31.947 L 1195.657 31.947 L 1195.657 31.947 Q 1195.443 31.731 1195.443 31.239 Z  M 1198.928 31.239 L 1198.928 31.239 L 1198.928 31.239 Q 1198.928 30.781 1199.123 30.545 L 1199.123 30.545 L 1199.123 30.545 Q 1199.318 30.31 1199.682 30.31 L 1199.682 30.31 L 1199.682 30.31 Q 1200.053 30.31 1200.261 30.545 L 1200.261 30.545 L 1200.261 30.545 Q 1200.469 30.781 1200.469 31.239 L 1200.469 31.239 L 1200.469 31.239 Q 1200.469 31.684 1200.258 31.923 L 1200.258 31.923 L 1200.258 31.923 Q 1200.047 32.162 1199.682 32.162 L 1199.682 32.162 L 1199.682 32.162 Q 1199.356 32.162 1199.142 31.947 L 1199.142 31.947 L 1199.142 31.947 Q 1198.928 31.731 1198.928 31.239 Z  M 1202.413 31.239 L 1202.413 31.239 L 1202.413 31.239 Q 1202.413 30.781 1202.608 30.545 L 1202.608 30.545 L 1202.608 30.545 Q 1202.803 30.31 1203.167 30.31 L 1203.167 30.31 L 1203.167 30.31 Q 1203.538 30.31 1203.746 30.545 L 1203.746 30.545 L 1203.746 30.545 Q 1203.954 30.781 1203.954 31.239 L 1203.954 31.239 L 1203.954 31.239 Q 1203.954 31.684 1203.743 31.923 L 1203.743 31.923 L 1203.743 31.923 Q 1203.532 32.162 1203.167 32.162 L 1203.167 32.162 L 1203.167 32.162 Q 1202.841 32.162 1202.627 31.947 L 1202.627 31.947 L 1202.627 31.947 Q 1202.413 31.731 1202.413 31.239 Z  M 1100.899 31.964 L 1095.687 31.964 L 1095.687 21.97 L 1096.774 21.97 L 1096.774 30.911 L 1100.899 30.911 L 1100.899 31.964 Z  M 1108.374 28.211 L 1108.374 28.211 L 1108.374 28.211 Q 1108.374 30.043 1107.511 31.072 L 1107.511 31.072 L 1107.511 31.072 Q 1106.647 32.101 1105.125 32.101 L 1105.125 32.101 L 1105.125 32.101 Q 1104.185 32.101 1103.456 31.629 L 1103.456 31.629 L 1103.456 31.629 Q 1102.727 31.157 1102.331 30.275 L 1102.331 30.275 L 1102.331 30.275 Q 1101.935 29.394 1101.935 28.211 L 1101.935 28.211 L 1101.935 28.211 Q 1101.935 26.379 1102.791 25.357 L 1102.791 25.357 L 1102.791 25.357 Q 1103.648 24.335 1105.17 24.335 L 1105.17 24.335 L 1105.17 24.335 Q 1106.641 24.335 1107.507 25.381 L 1107.507 25.381 L 1107.507 25.381 Q 1108.374 26.427 1108.374 28.211 Z  M 1103.034 28.211 L 1103.034 28.211 L 1103.034 28.211 Q 1103.034 29.646 1103.572 30.398 L 1103.572 30.398 L 1103.572 30.398 Q 1104.109 31.15 1105.151 31.15 L 1105.151 31.15 L 1105.151 31.15 Q 1106.193 31.15 1106.734 30.402 L 1106.734 30.402 L 1106.734 30.402 Q 1107.274 29.653 1107.274 28.211 L 1107.274 28.211 L 1107.274 28.211 Q 1107.274 26.782 1106.734 26.041 L 1106.734 26.041 L 1106.734 26.041 Q 1106.193 25.299 1105.138 25.299 L 1105.138 25.299 L 1105.138 25.299 Q 1104.096 25.299 1103.565 26.03 L 1103.565 26.03 L 1103.565 26.03 Q 1103.034 26.762 1103.034 28.211 Z  M 1115.331 31.964 L 1114.545 31.964 L 1114.334 30.897 L 1114.282 30.897 L 1114.282 30.897 Q 1113.758 31.602 1113.237 31.851 L 1113.237 31.851 L 1113.237 31.851 Q 1112.716 32.101 1111.936 32.101 L 1111.936 32.101 L 1111.936 32.101 Q 1110.893 32.101 1110.302 31.526 L 1110.302 31.526 L 1110.302 31.526 Q 1109.71 30.952 1109.71 29.893 L 1109.71 29.893 L 1109.71 29.893 Q 1109.71 27.623 1113.106 27.514 L 1113.106 27.514 L 1114.295 27.473 L 1114.295 27.008 L 1114.295 27.008 Q 1114.295 26.126 1113.94 25.706 L 1113.94 25.706 L 1113.94 25.706 Q 1113.585 25.285 1112.805 25.285 L 1112.805 25.285 L 1112.805 25.285 Q 1111.929 25.285 1110.823 25.859 L 1110.823 25.859 L 1110.497 24.991 L 1110.497 24.991 Q 1111.015 24.69 1111.632 24.52 L 1111.632 24.52 L 1111.632 24.52 Q 1112.249 24.349 1112.869 24.349 L 1112.869 24.349 L 1112.869 24.349 Q 1114.123 24.349 1114.727 24.943 L 1114.727 24.943 L 1114.727 24.943 Q 1115.331 25.538 1115.331 26.851 L 1115.331 26.851 L 1115.331 31.964 Z  M 1112.147 31.164 L 1112.147 31.164 L 1112.147 31.164 Q 1113.138 31.164 1113.704 30.583 L 1113.704 30.583 L 1113.704 30.583 Q 1114.27 30.002 1114.27 28.956 L 1114.27 28.956 L 1114.27 28.279 L 1113.208 28.327 L 1113.208 28.327 Q 1111.942 28.375 1111.383 28.748 L 1111.383 28.748 L 1111.383 28.748 Q 1110.823 29.12 1110.823 29.906 L 1110.823 29.906 L 1110.823 29.906 Q 1110.823 30.521 1111.171 30.843 L 1111.171 30.843 L 1111.171 30.843 Q 1111.52 31.164 1112.147 31.164 Z  M 1122.429 31.964 L 1122.288 30.959 L 1122.231 30.959 L 1122.231 30.959 Q 1121.496 32.101 1120.031 32.101 L 1120.031 32.101 L 1120.031 32.101 Q 1118.656 32.101 1117.892 31.096 L 1117.892 31.096 L 1117.892 31.096 Q 1117.128 30.091 1117.128 28.238 L 1117.128 28.238 L 1117.128 28.238 Q 1117.128 26.386 1117.895 25.36 L 1117.895 25.36 L 1117.895 25.36 Q 1118.663 24.335 1120.031 24.335 L 1120.031 24.335 L 1120.031 24.335 Q 1121.457 24.335 1122.218 25.442 L 1122.218 25.442 L 1122.301 25.442 L 1122.257 24.902 L 1122.231 24.376 L 1122.231 21.327 L 1123.292 21.327 L 1123.292 31.964 L 1122.429 31.964 Z  M 1120.165 31.15 L 1120.165 31.15 L 1120.165 31.15 Q 1121.253 31.15 1121.742 30.518 L 1121.742 30.518 L 1121.742 30.518 Q 1122.231 29.886 1122.231 28.478 L 1122.231 28.478 L 1122.231 28.238 L 1122.231 28.238 Q 1122.231 26.646 1121.735 25.965 L 1121.735 25.965 L 1121.735 25.965 Q 1121.24 25.285 1120.153 25.285 L 1120.153 25.285 L 1120.153 25.285 Q 1119.219 25.285 1118.724 26.061 L 1118.724 26.061 L 1118.724 26.061 Q 1118.228 26.837 1118.228 28.252 L 1118.228 28.252 L 1118.228 28.252 Q 1118.228 29.688 1118.72 30.419 L 1118.72 30.419 L 1118.72 30.419 Q 1119.213 31.15 1120.165 31.15 Z  M 1126.605 24.472 L 1126.605 31.964 L 1125.543 31.964 L 1125.543 24.472 L 1126.605 24.472 Z  M 1125.454 22.441 L 1125.454 22.441 L 1125.454 22.441 Q 1125.454 22.052 1125.633 21.871 L 1125.633 21.871 L 1125.633 21.871 Q 1125.812 21.689 1126.08 21.689 L 1126.08 21.689 L 1126.08 21.689 Q 1126.336 21.689 1126.522 21.874 L 1126.522 21.874 L 1126.522 21.874 Q 1126.707 22.059 1126.707 22.441 L 1126.707 22.441 L 1126.707 22.441 Q 1126.707 22.824 1126.522 23.012 L 1126.522 23.012 L 1126.522 23.012 Q 1126.336 23.2 1126.08 23.2 L 1126.08 23.2 L 1126.08 23.2 Q 1125.812 23.2 1125.633 23.012 L 1125.633 23.012 L 1125.633 23.012 Q 1125.454 22.824 1125.454 22.441 Z  M 1134.713 31.964 L 1133.652 31.964 L 1133.652 27.117 L 1133.652 27.117 Q 1133.652 26.201 1133.262 25.75 L 1133.262 25.75 L 1133.262 25.75 Q 1132.872 25.299 1132.04 25.299 L 1132.04 25.299 L 1132.04 25.299 Q 1130.94 25.299 1130.429 25.935 L 1130.429 25.935 L 1130.429 25.935 Q 1129.917 26.57 1129.917 28.033 L 1129.917 28.033 L 1129.917 31.964 L 1128.856 31.964 L 1128.856 24.472 L 1129.719 24.472 L 1129.892 25.497 L 1129.943 25.497 L 1129.943 25.497 Q 1130.269 24.943 1130.857 24.639 L 1130.857 24.639 L 1130.857 24.639 Q 1131.446 24.335 1132.168 24.335 L 1132.168 24.335 L 1132.168 24.335 Q 1133.434 24.335 1134.074 24.988 L 1134.074 24.988 L 1134.074 24.988 Q 1134.713 25.641 1134.713 27.076 L 1134.713 27.076 L 1134.713 31.964 Z  M 1140.206 24.472 L 1142.63 24.472 L 1142.63 25.189 L 1141.332 25.354 L 1141.332 25.354 Q 1141.511 25.593 1141.651 25.979 L 1141.651 25.979 L 1141.651 25.979 Q 1141.792 26.365 1141.792 26.851 L 1141.792 26.851 L 1141.792 26.851 Q 1141.792 27.951 1141.089 28.607 L 1141.089 28.607 L 1141.089 28.607 Q 1140.385 29.264 1139.157 29.264 L 1139.157 29.264 L 1139.157 29.264 Q 1138.844 29.264 1138.569 29.209 L 1138.569 29.209 L 1138.569 29.209 Q 1137.891 29.592 1137.891 30.173 L 1137.891 30.173 L 1137.891 30.173 Q 1137.891 30.48 1138.128 30.627 L 1138.128 30.627 L 1138.128 30.627 Q 1138.364 30.774 1138.94 30.774 L 1138.94 30.774 L 1140.181 30.774 L 1140.181 30.774 Q 1141.319 30.774 1141.929 31.287 L 1141.929 31.287 L 1141.929 31.287 Q 1142.54 31.8 1142.54 32.777 L 1142.54 32.777 L 1142.54 32.777 Q 1142.54 34.021 1141.607 34.674 L 1141.607 34.674 L 1141.607 34.674 Q 1140.673 35.327 1138.882 35.327 L 1138.882 35.327 L 1138.882 35.327 Q 1137.508 35.327 1136.763 34.78 L 1136.763 34.78 L 1136.763 34.78 Q 1136.018 34.233 1136.018 33.235 L 1136.018 33.235 L 1136.018 33.235 Q 1136.018 32.552 1136.427 32.053 L 1136.427 32.053 L 1136.427 32.053 Q 1136.836 31.554 1137.578 31.376 L 1137.578 31.376 L 1137.578 31.376 Q 1137.309 31.246 1137.127 30.973 L 1137.127 30.973 L 1137.127 30.973 Q 1136.945 30.699 1136.945 30.337 L 1136.945 30.337 L 1136.945 30.337 Q 1136.945 29.927 1137.149 29.619 L 1137.149 29.619 L 1137.149 29.619 Q 1137.354 29.312 1137.795 29.024 L 1137.795 29.024 L 1137.795 29.024 Q 1137.252 28.785 1136.91 28.211 L 1136.91 28.211 L 1136.91 28.211 Q 1136.568 27.637 1136.568 26.898 L 1136.568 26.898 L 1136.568 26.898 Q 1136.568 25.668 1137.258 25.001 L 1137.258 25.001 L 1137.258 25.001 Q 1137.949 24.335 1139.215 24.335 L 1139.215 24.335 L 1139.215 24.335 Q 1139.765 24.335 1140.206 24.472 L 1140.206 24.472 Z  M 1137.041 33.222 L 1137.041 33.222 L 1137.041 33.222 Q 1137.041 33.83 1137.52 34.145 L 1137.52 34.145 L 1137.52 34.145 Q 1138 34.459 1138.895 34.459 L 1138.895 34.459 L 1138.895 34.459 Q 1140.232 34.459 1140.874 34.032 L 1140.874 34.032 L 1140.874 34.032 Q 1141.517 33.604 1141.517 32.873 L 1141.517 32.873 L 1141.517 32.873 Q 1141.517 32.265 1141.165 32.029 L 1141.165 32.029 L 1141.165 32.029 Q 1140.814 31.793 1139.842 31.793 L 1139.842 31.793 L 1138.569 31.793 L 1138.569 31.793 Q 1137.847 31.793 1137.444 32.162 L 1137.444 32.162 L 1137.444 32.162 Q 1137.041 32.531 1137.041 33.222 Z  M 1137.616 26.871 L 1137.616 26.871 L 1137.616 26.871 Q 1137.616 27.657 1138.032 28.061 L 1138.032 28.061 L 1138.032 28.061 Q 1138.448 28.464 1139.189 28.464 L 1139.189 28.464 L 1139.189 28.464 Q 1140.743 28.464 1140.743 26.851 L 1140.743 26.851 L 1140.743 26.851 Q 1140.743 25.162 1139.17 25.162 L 1139.17 25.162 L 1139.17 25.162 Q 1138.422 25.162 1138.019 25.593 L 1138.019 25.593 L 1138.019 25.593 Q 1137.616 26.023 1137.616 26.871 Z " fill="rgb(172,172,172)"/><g><path d=" M 1154.884 -2.194 L 1154.884 -2.194 L 1154.884 -43.711 L 1154.884 -43.711 Q 1154.884 -44.989 1156.097 -45.628 L 1156.097 -45.628 L 1156.097 -45.628 Q 1157.311 -46.266 1159.036 -46.266 L 1159.036 -46.266 L 1159.036 -46.266 Q 1160.76 -46.266 1161.974 -45.628 L 1161.974 -45.628 L 1161.974 -45.628 Q 1163.187 -44.989 1163.187 -43.711 L 1163.187 -43.711 L 1163.187 -2.194 L 1163.187 -2.194 Q 1163.187 -0.98 1161.942 -0.277 L 1161.942 -0.277 L 1161.942 -0.277 Q 1160.696 0.425 1159.036 0.425 L 1159.036 0.425 L 1159.036 0.425 Q 1157.311 0.425 1156.097 -0.277 L 1156.097 -0.277 L 1156.097 -0.277 Q 1154.884 -0.98 1154.884 -2.194 Z  M 1167.786 -42.562 L 1167.786 -42.562 L 1167.786 -42.562 Q 1167.786 -44.031 1168.457 -45.149 L 1168.457 -45.149 L 1168.457 -45.149 Q 1169.128 -46.266 1170.405 -46.266 L 1170.405 -46.266 L 1197.424 -46.266 L 1197.424 -46.266 Q 1198.701 -46.266 1199.372 -45.149 L 1199.372 -45.149 L 1199.372 -45.149 Q 1200.042 -44.031 1200.042 -42.562 L 1200.042 -42.562 L 1200.042 -42.562 Q 1200.042 -41.029 1199.34 -39.911 L 1199.34 -39.911 L 1199.34 -39.911 Q 1198.637 -38.793 1197.424 -38.793 L 1197.424 -38.793 L 1188.098 -38.793 L 1188.098 -2.194 L 1188.098 -2.194 Q 1188.098 -0.98 1186.853 -0.277 L 1186.853 -0.277 L 1186.853 -0.277 Q 1185.607 0.425 1183.946 0.425 L 1183.946 0.425 L 1183.946 0.425 Q 1182.222 0.425 1181.008 -0.277 L 1181.008 -0.277 L 1181.008 -0.277 Q 1179.794 -0.98 1179.794 -2.194 L 1179.794 -2.194 L 1179.794 -38.793 L 1170.405 -38.793 L 1170.405 -38.793 Q 1169.192 -38.793 1168.489 -39.879 L 1168.489 -39.879 L 1168.489 -39.879 Q 1167.786 -40.965 1167.786 -42.562 Z  M 1203.364 -13.819 L 1203.364 -13.819 L 1203.364 -31.639 L 1203.364 -31.639 Q 1203.364 -39.176 1207.452 -42.721 L 1207.452 -42.721 L 1207.452 -42.721 Q 1211.54 -46.266 1218.119 -46.266 L 1218.119 -46.266 L 1218.119 -46.266 Q 1224.825 -46.266 1229.073 -42.945 L 1229.073 -42.945 L 1229.073 -42.945 Q 1233.32 -39.624 1233.32 -34.13 L 1233.32 -34.13 L 1233.32 -34.13 Q 1233.32 -31.767 1232.362 -30.905 L 1232.362 -30.905 L 1232.362 -30.905 Q 1231.404 -30.043 1229.169 -30.043 L 1229.169 -30.043 L 1229.169 -30.043 Q 1225.081 -30.043 1225.017 -32.661 L 1225.017 -32.661 L 1225.017 -32.661 Q 1224.953 -33.492 1224.857 -34.098 L 1224.857 -34.098 L 1224.857 -34.098 Q 1224.761 -34.705 1224.346 -35.695 L 1224.346 -35.695 L 1224.346 -35.695 Q 1223.931 -36.685 1223.292 -37.356 L 1223.292 -37.356 L 1223.292 -37.356 Q 1222.654 -38.027 1221.376 -38.506 L 1221.376 -38.506 L 1221.376 -38.506 Q 1220.099 -38.985 1218.374 -38.985 L 1218.374 -38.985 L 1218.374 -38.985 Q 1211.667 -38.985 1211.667 -31.639 L 1211.667 -31.639 L 1211.667 -13.819 L 1211.667 -13.819 Q 1211.667 -6.473 1218.502 -6.473 L 1218.502 -6.473 L 1218.502 -6.473 Q 1220.546 -6.473 1221.919 -7.112 L 1221.919 -7.112 L 1221.919 -7.112 Q 1223.292 -7.751 1223.899 -8.932 L 1223.899 -8.932 L 1223.899 -8.932 Q 1224.506 -10.114 1224.73 -11.04 L 1224.73 -11.04 L 1224.73 -11.04 Q 1224.953 -11.966 1225.017 -13.308 L 1225.017 -13.308 L 1225.017 -13.308 Q 1225.209 -15.926 1229.105 -15.926 L 1229.105 -15.926 L 1229.105 -15.926 Q 1231.34 -15.926 1232.33 -15.064 L 1232.33 -15.064 L 1232.33 -15.064 Q 1233.32 -14.202 1233.32 -11.839 L 1233.32 -11.839 L 1233.32 -11.839 Q 1233.32 -6.09 1229.073 -2.641 L 1229.073 -2.641 L 1229.073 -2.641 Q 1224.825 0.808 1218.055 0.808 L 1218.055 0.808 L 1218.055 0.808 Q 1211.476 0.808 1207.42 -2.737 L 1207.42 -2.737 L 1207.42 -2.737 Q 1203.364 -6.282 1203.364 -13.819 Z  M 1238.941 -2.194 L 1238.941 -2.194 L 1238.941 -43.711 L 1238.941 -43.711 Q 1238.941 -44.989 1240.155 -45.628 L 1240.155 -45.628 L 1240.155 -45.628 Q 1241.368 -46.266 1243.093 -46.266 L 1243.093 -46.266 L 1243.093 -46.266 Q 1244.818 -46.266 1246.031 -45.628 L 1246.031 -45.628 L 1246.031 -45.628 Q 1247.245 -44.989 1247.245 -43.711 L 1247.245 -43.711 L 1247.245 -27.04 L 1261.616 -27.04 L 1261.616 -43.711 L 1261.616 -43.711 Q 1261.616 -44.989 1262.83 -45.628 L 1262.83 -45.628 L 1262.83 -45.628 Q 1264.044 -46.266 1265.768 -46.266 L 1265.768 -46.266 L 1265.768 -46.266 Q 1267.493 -46.266 1268.706 -45.628 L 1268.706 -45.628 L 1268.706 -45.628 Q 1269.92 -44.989 1269.92 -43.711 L 1269.92 -43.711 L 1269.92 -2.194 L 1269.92 -2.194 Q 1269.92 -0.98 1268.674 -0.277 L 1268.674 -0.277 L 1268.674 -0.277 Q 1267.429 0.425 1265.768 0.425 L 1265.768 0.425 L 1265.768 0.425 Q 1264.044 0.425 1262.83 -0.277 L 1262.83 -0.277 L 1262.83 -0.277 Q 1261.616 -0.98 1261.616 -2.194 L 1261.616 -2.194 L 1261.616 -20.525 L 1247.245 -20.525 L 1247.245 -2.194 L 1247.245 -2.194 Q 1247.245 -0.98 1245.999 -0.277 L 1245.999 -0.277 L 1245.999 -0.277 Q 1244.754 0.425 1243.093 0.425 L 1243.093 0.425 L 1243.093 0.425 Q 1241.368 0.425 1240.155 -0.277 L 1240.155 -0.277 L 1240.155 -0.277 Q 1238.941 -0.98 1238.941 -2.194 Z  M 1277.585 -2.194 L 1277.585 -2.194 L 1277.585 -43.711 L 1277.585 -43.711 Q 1277.585 -44.989 1278.798 -45.628 L 1278.798 -45.628 L 1278.798 -45.628 Q 1280.012 -46.266 1281.737 -46.266 L 1281.737 -46.266 L 1281.737 -46.266 Q 1283.461 -46.266 1284.675 -45.628 L 1284.675 -45.628 L 1284.675 -45.628 Q 1285.888 -44.989 1285.888 -43.711 L 1285.888 -43.711 L 1285.888 -6.856 L 1301.473 -6.856 L 1301.473 -6.856 Q 1302.623 -6.856 1303.294 -5.771 L 1303.294 -5.771 L 1303.294 -5.771 Q 1303.964 -4.685 1303.964 -3.216 L 1303.964 -3.216 L 1303.964 -3.216 Q 1303.964 -1.747 1303.294 -0.661 L 1303.294 -0.661 L 1303.294 -0.661 Q 1302.623 0.425 1301.473 0.425 L 1301.473 0.425 L 1281.226 0.425 L 1281.226 0.425 Q 1279.756 0.425 1278.671 -0.277 L 1278.671 -0.277 L 1278.671 -0.277 Q 1277.585 -0.98 1277.585 -2.194 Z  M 1308.499 -2.194 L 1308.499 -2.194 L 1308.499 -43.711 L 1308.499 -43.711 Q 1308.499 -44.989 1309.713 -45.628 L 1309.713 -45.628 L 1309.713 -45.628 Q 1310.927 -46.266 1312.651 -46.266 L 1312.651 -46.266 L 1312.651 -46.266 Q 1314.376 -46.266 1315.589 -45.628 L 1315.589 -45.628 L 1315.589 -45.628 Q 1316.803 -44.989 1316.803 -43.711 L 1316.803 -43.711 L 1316.803 -2.194 L 1316.803 -2.194 Q 1316.803 -0.98 1315.558 -0.277 L 1315.558 -0.277 L 1315.558 -0.277 Q 1314.312 0.425 1312.651 0.425 L 1312.651 0.425 L 1312.651 0.425 Q 1310.927 0.425 1309.713 -0.277 L 1309.713 -0.277 L 1309.713 -0.277 Q 1308.499 -0.98 1308.499 -2.194 Z  M 1322.168 -6.92 L 1322.168 -6.92 L 1322.168 -6.92 Q 1322.168 -8.389 1323.286 -9.89 L 1323.286 -9.89 L 1323.286 -9.89 Q 1324.404 -11.391 1325.809 -11.391 L 1325.809 -11.391 L 1325.809 -11.391 Q 1326.64 -11.391 1327.694 -10.625 L 1327.694 -10.625 L 1327.694 -10.625 Q 1328.747 -9.858 1329.737 -8.932 L 1329.737 -8.932 L 1329.737 -8.932 Q 1330.728 -8.006 1332.58 -7.24 L 1332.58 -7.24 L 1332.58 -7.24 Q 1334.432 -6.473 1336.668 -6.473 L 1336.668 -6.473 L 1336.668 -6.473 Q 1339.734 -6.473 1341.778 -7.878 L 1341.778 -7.878 L 1341.778 -7.878 Q 1343.822 -9.284 1343.822 -12.03 L 1343.822 -12.03 L 1343.822 -12.03 Q 1343.822 -13.946 1342.704 -15.447 L 1342.704 -15.447 L 1342.704 -15.447 Q 1341.586 -16.948 1339.766 -17.938 L 1339.766 -17.938 L 1339.766 -17.938 Q 1337.945 -18.929 1335.774 -19.855 L 1335.774 -19.855 L 1335.774 -19.855 Q 1333.602 -20.781 1331.398 -21.931 L 1331.398 -21.931 L 1331.398 -21.931 Q 1329.194 -23.08 1327.374 -24.517 L 1327.374 -24.517 L 1327.374 -24.517 Q 1325.554 -25.955 1324.436 -28.35 L 1324.436 -28.35 L 1324.436 -28.35 Q 1323.318 -30.745 1323.318 -33.811 L 1323.318 -33.811 L 1323.318 -33.811 Q 1323.318 -37.196 1324.691 -39.783 L 1324.691 -39.783 L 1324.691 -39.783 Q 1326.065 -42.37 1328.364 -43.807 L 1328.364 -43.807 L 1328.364 -43.807 Q 1330.664 -45.244 1333.282 -45.915 L 1333.282 -45.915 L 1333.282 -45.915 Q 1335.901 -46.586 1338.839 -46.586 L 1338.839 -46.586 L 1338.839 -46.586 Q 1340.5 -46.586 1342.352 -46.362 L 1342.352 -46.362 L 1342.352 -46.362 Q 1344.205 -46.139 1346.281 -45.628 L 1346.281 -45.628 L 1346.281 -45.628 Q 1348.357 -45.117 1349.666 -44.031 L 1349.666 -44.031 L 1349.666 -44.031 Q 1350.975 -42.945 1350.975 -41.476 L 1350.975 -41.476 L 1350.975 -41.476 Q 1350.975 -40.071 1350.081 -38.57 L 1350.081 -38.57 L 1350.081 -38.57 Q 1349.187 -37.069 1347.654 -37.069 L 1347.654 -37.069 L 1347.654 -37.069 Q 1347.079 -37.069 1344.524 -38.282 L 1344.524 -38.282 L 1344.524 -38.282 Q 1341.969 -39.496 1338.839 -39.496 L 1338.839 -39.496 L 1338.839 -39.496 Q 1335.39 -39.496 1333.506 -38.186 L 1333.506 -38.186 L 1333.506 -38.186 Q 1331.622 -36.877 1331.622 -34.578 L 1331.622 -34.578 L 1331.622 -34.578 Q 1331.622 -32.725 1333.155 -31.352 L 1333.155 -31.352 L 1333.155 -31.352 Q 1334.688 -29.979 1336.955 -29.116 L 1336.955 -29.116 L 1336.955 -29.116 Q 1339.223 -28.254 1341.873 -26.945 L 1341.873 -26.945 L 1341.873 -26.945 Q 1344.524 -25.635 1346.792 -24.102 L 1346.792 -24.102 L 1346.792 -24.102 Q 1349.059 -22.569 1350.592 -19.663 L 1350.592 -19.663 L 1350.592 -19.663 Q 1352.125 -16.757 1352.125 -12.861 L 1352.125 -12.861 L 1352.125 -12.861 Q 1352.125 -6.218 1347.941 -2.609 L 1347.941 -2.609 L 1347.941 -2.609 Q 1343.758 1 1336.923 1 L 1336.923 1 L 1336.923 1 Q 1330.855 1 1326.512 -1.491 L 1326.512 -1.491 L 1326.512 -1.491 Q 1322.168 -3.982 1322.168 -6.92 Z  M 1354.744 -42.562 L 1354.744 -42.562 L 1354.744 -42.562 Q 1354.744 -44.031 1355.415 -45.149 L 1355.415 -45.149 L 1355.415 -45.149 Q 1356.085 -46.266 1357.363 -46.266 L 1357.363 -46.266 L 1384.381 -46.266 L 1384.381 -46.266 Q 1385.659 -46.266 1386.329 -45.149 L 1386.329 -45.149 L 1386.329 -45.149 Q 1387 -44.031 1387 -42.562 L 1387 -42.562 L 1387 -42.562 Q 1387 -41.029 1386.297 -39.911 L 1386.297 -39.911 L 1386.297 -39.911 Q 1385.595 -38.793 1384.381 -38.793 L 1384.381 -38.793 L 1375.056 -38.793 L 1375.056 -2.194 L 1375.056 -2.194 Q 1375.056 -0.98 1373.81 -0.277 L 1373.81 -0.277 L 1373.81 -0.277 Q 1372.565 0.425 1370.904 0.425 L 1370.904 0.425 L 1370.904 0.425 Q 1369.179 0.425 1367.966 -0.277 L 1367.966 -0.277 L 1367.966 -0.277 Q 1366.752 -0.98 1366.752 -2.194 L 1366.752 -2.194 L 1366.752 -38.793 L 1357.363 -38.793 L 1357.363 -38.793 Q 1356.149 -38.793 1355.446 -39.879 L 1355.446 -39.879 L 1355.446 -39.879 Q 1354.744 -40.965 1354.744 -42.562 Z " fill="rgb(242,97,72)"/><path d=" M 1146.271 -24.805 L 1139.857 -26.778 L 1142.3 -34.732 L 1127 -40.887 L 1140.928 -49.496 L 1135.306 -64.977 L 1150.147 -61.091 L 1156.856 -75.962 L 1164.649 -62.551 L 1172.009 -66.373 L 1175.103 -60.416 L 1162.064 -53.644 L 1157.608 -61.309 L 1153.933 -53.161 L 1145.982 -55.245 L 1149.103 -46.656 L 1141.824 -42.159 L 1150.53 -38.659 L 1146.271 -24.805 Z " fill="rgb(242,97,72)"/></g></g></svg>